<mxfile host="app.diagrams.net" modified="2022-04-20T11:56:51.664Z" agent="5.0 (Windows NT 10.0; Win64; x64) AppleWebKit/537.36 (KHTML, like Gecko) Chrome/100.0.4896.127 Safari/537.36" etag="yaw2Ma3-m5dvHyxwBSSy" version="17.4.2" type="github">
  <diagram id="w9Pe73mKiRnLNqxxvqoM" name="Page-1">
    <mxGraphModel dx="1038" dy="547" grid="1" gridSize="10" guides="1" tooltips="1" connect="1" arrows="1" fold="1" page="1" pageScale="1" pageWidth="827" pageHeight="1169" math="0" shadow="0">
      <root>
        <mxCell id="0" />
        <mxCell id="1" parent="0" />
        <mxCell id="siOGssPFufM20Y7SlqJk-19" style="edgeStyle=orthogonalEdgeStyle;rounded=0;orthogonalLoop=1;jettySize=auto;html=1;exitX=1;exitY=0.5;exitDx=0;exitDy=0;entryX=0;entryY=0.5;entryDx=0;entryDy=0;strokeWidth=2;" edge="1" parent="1" source="siOGssPFufM20Y7SlqJk-10" target="siOGssPFufM20Y7SlqJk-12">
          <mxGeometry relative="1" as="geometry" />
        </mxCell>
        <mxCell id="siOGssPFufM20Y7SlqJk-10" value="" style="shape=image;verticalLabelPosition=bottom;labelBackgroundColor=default;verticalAlign=top;aspect=fixed;imageAspect=0;image=data:image/png,iVBORw0KGgoAAAANSUhEUgAAAOYAAACYCAYAAADwQpUKAAAOw0lEQVR4nO3dfUzUd4LH8TfOOAwy4MDwKCiDQhWwJzYW7LWeutVtqvTOqLduNNnT9jbeRdvtVVP/2F4vu/Uu243Nudve7TW5Vi9Z2rrpg82BSaP18ZpFtg/cVhwroFhBHkdHQRgGRu4PhikosvRA+WI/r4Q483v8Dvrx+/D7/n4TUXepobetzcskJiMi4+sG3cTEuLC+/cG/8/K/7KK1vvOuFmDnkdl39XwiE4HDmkpB9z8QkZAW1Xu3QwkKpsjtOKypTBqPUIrI7bX3NDBpvAshIrdSMEUMpGCKGEjBFDGQgiliIAVTxEAKpoiBrMOt3Hb4CruWOm+/wZk3iMj52zEszk42L1lLwm3X11BxdCWt88pZFhdJ/cV57K0Zw9N/K31ldfhe5pWKPeNVCLlHDRvMLyo+x5OY2vfGmUlOuh1az+Np9Pctqzo/xsUp5mNPGZEA5PFg9ibSug+yv/aj0Po2vEBGbwBCW9379B/Ad9GwwTz83KPk9r958zS9m3Lwfflv5H7vlTtUHA/VTZ7Q60Tys4Heq1Q2lQzaqvGPj3DyDpVAxATDBnNEsrZQ/MFOVs9xYrcCPT7On3iDrd/bzoHRl29IC+aV81gc1FYXUFwHhfnlLHMGaGyzkRITC0CP/xhHz50ja+Z63Pa+2tXfVsyHn71Edeg4KRmv8lfpy0kI3Vjj76rgVM12PmquA9JZkPM6ixNnYQ/1xP0dx/jfms0c8g4oTOQTbFm0A6cF6L1Ga/Ov2OcpxgdAOnn37WJZcj4OC9Dbhb/zOGWep/mkLbR/zN+xJudJ5kzpKzc9rdQ3/4L9Z0vwpe9lW9ZC7ADOHfx0yQ78/TWnawcbstfgtof2C7bS2Pob3gufWyayUQ/+7Hp7F+vnOqHVg+eUh/PtTjKXbqP48LaxKN+QLBFDLU0gwXqaioZ3OdN2Dat9MctyN5HQfZyKhnep7ezCHrOBR+ek922e8jrrMpfjvFHBmfpiPm2poGdyPgvu20khQMYuHk2eBZ3HqKgvpqKlgh77YgqzduEecFZ7VDo9V9+louEYrcFYEpKfZ1VG3zpn1q8pmpaP1R86xpU6mLKcJTk7Q8dYy7r7n2WOPUB9SzGf1h+kPhhD2rQXWZkOeP+DUs9BfID/2h72e7ZTWnsQWMiqrE24bf37lVDtt5Ey4NwysY2yxnyIVKcdaOTAc7mseRvI2knpB6vJ9NnHonzfQh3VZzdSegWghg2P7MBNGWWfPd3X7I2bypZ5y3HYlwN7WJA8Hwd1VFb8kP2hefwncw6xJTmXrDQ4aY/BShetl1+itKYOgPyZu3BbKwedtefaW7z+x919bzr2sm3WQqbGFgElPByXi7WnjKN/2Bxuerfml7PMOZ88oDatiHQb+Jp+yF5PXehj7GJLYREprg1QV8yZziIW5wA3mgc06RcTbQW6v+B/KkMtgLhNPJaSR1fXHfjVyl03ymD+njf++/esePohVr/Vy5VfevB8eZj3nlnJK0fGemDoT+nCf+WmRYG6b/qiV67SM2BVsi0WiCWv8Ax5N+3mcABfv0t13LNkTT/EjpQ6mtqO4fl6N/t9dYO27blx9Zs3vX1/WC2JwAacNsC6kGVLzrDspnM40wBHInbAnnyInybftIEtZ5jPWszJ5jWkTFvOusXltHec5oK3hDLPdhqH2UsmjlH3MQ8/9+fEvfUUO59Zz+qlD/DQ41t46PGneGrPGnKfvFO9zNHr6gWo44xnN2duXtcBdO5hX9lB3KlryU9eTsbUDSzLX8tC727+68s9I+jHXaWnF+ip4GTVb2kYfAauXwOi+qo3X8t2jrbetHvP8NeBqqtW80rjYh5OWU+2az55MxaSN209n3pW85F32F1lAhhlH3M9/3niNKf3rKDzR4+SOz2OiPXv04idnCe2sWVsynhHNHS1AnasESVUNoV+rsHk3gqq24CMV9n84D/i9u1mf8VKfnViGZWdkTjin2DBiM5QgjcAWGxYrg04R4+dyR0Hqe0E2lpoB6wW+zfrmyogAuq9nmGOXcTK+aVsTEvkk6rN7C0r4J9ryvBbc5kzrWjUvxsZf6NuyvocmeTMzWHnlXNsqPNjT88hBaDOc8dGZcdCZd1RHolbS1ZWKevivqD9RiLpiYtJsNSQ1rWSUmsazuhcCue9g8tbSbstj4xIoLuFmyu32znUWMa8rIXk57+D43I1fmsWblc+zmARkZ9s5GTTHqpnLCQ//nk2/9lC6rr8OGK/T1Z0LK1T63j9qwqgla4gJDieYNXMAKdaiqluA7t9Fmmxz7PZlk9tJzidudiBRn/FnfulyV0zymCeZ/tfbyf17RdYkZ9Jzlygx4/v1Pu88OOt3KleZrB3DA5y5QX2VdtZl7mcrORZAPR011BZtZnSq8DVZ/jY9mseduUzJy0f6Luc8mnNS4z4n37dRj6M3MtjqQuZkxo6hr+Mk1UbQ33fMkpP/ZLJc3/C7LgiEiKAG9dobXqJfV/1n2U3nitFuFy55M3IJdlWTPWZEt47m8e6WWtwx61lQXxov9bdlFbVDVkUmVgiCA9Z3F165o/I7WkSu4iBFEwRAymYIgZSMEUMpGCKGEjBFDGQgiliIAVTxEBWXegXMY9qTBEDKZgiBlIwRQykYIoYSMEUMZCCKWIgBVPEQAqmiIEUTBEDKZgiBlIwRQykYIoYSMEUMZCCKWIgBVPEQAqmiIEUTBEDKZgiBlIwRQykYIoYSMEUMZCCKWIgBVPEQAqmiIEUTBEDKZgiBlIwRQxkHe8CyLeX7VpChrOQGc4CANoDzVzwlVPZVEp7oHmcSydjIWLnkdm9410IGRmbJZoVs39GfFTmkOsDweucvLiHKu+Ru1wyGWuqMSeIm0NZ7T3CBV85geB1UmLmku1aisOWyCL3VgLB61zwlY9ziWU0FMwJIi+5iPioTLqDHRyq+QUNbZXhdQ1tlVQ2lfAX7q3McBawyL2Vhi//nkDw+jiWWEZDgz8TRF7SSgA+v7QvHMq5yX/JQzN+TGxkKoHgdY7XvkZ3sAObJZps19LxLK6MkmpMg9gs0WQ4H8RhSxq03BGZhM0SDRDuP86Me5iC9L8BIC5qOge+ejHUhD1Jlmsp2QlLsFmmDDpOIHidxvbTeDvO34VPI6OhYBrCYUtixeyf3RLKgdoDLeHmaUSEJbx8UsQ3f43ejlqyXBAflXnbQaITta9pgMhwCqYhFk7fhMOWRHewA2/n0DVaZVNJ+HXN5eNMtacSG5nKl00fhpdXeY/gmuLGEXlrwG2WaOKj3H190LZKXVoxmIJpiJSYPACO17464hHVzy/tu2VZf1/zdlblvkJ8lJvUmDyqvAqmqTT4Y4j+PuSdHkntP/5QNaqYQ8EUMZCCKWIgBfM75nJHLQCNbafGuSQyHA3+fMeUXXyTzy/t06wgwymYhou0Olic+RPSYvNpbv/qlvWJ0dnUX6vg6Ll/pfuGf0THVCjNp2AaLsNZSHrsAwAkO3KG3Gb61AXMcBZQc/n4EPsXEB/lxmaNxmaJpr2rOXSb2B8UUIMpmIY72/oxvb29TLZE3nabQLDzllDOn7aOvKSV4cswN1tE32SELy79ThMNDKRgTgBV3sMj3tZhS2JZ1vODpuM1tleGJ767otykxsxlsmUK2a6lZDgLOFH7mm4TM4yCeQ9x2JJYlbsLmyWa7mAHp5pLqGwqGbLJmuEsoHD6kzhsiTw6a4fmzxpGwZwApsXcj2WSbdCyq/5LXOtqGLRsWdaOcCgPnH1x2LtILvjKaWirDN/DWTh9E5c7a3XniSEUTMPNjHuYJTOfG3Ldbyt+FK4N509bR3yU+7ahnD9tHa4oN8drXwvv0z+vdsXsnxMf5aYwfSMHzv7Tnf1AMiKaYGC41o5z+PwX6ej2hn8Azl0+MaiJOjepCIBTzSVD1nrzU3/ADGcBrinuQcsDwescqn4ZgJSYuaSGJtPL+FKNabhrXQ28X/nssNtkOAuYHLopeuCtYSPVHmjma185M5wFZDgLBz22RMaHasx7QPyUvhHYxvbK//e1yf5R2fibalQZH6ox7wExtkSAEdV0j9/38/DrxrZT4T5l/7XMFIeasiZQMA0XbXOxdOZzTJ70zfN7YiOTqb58jE8uvA5w20kEA7UHWnCEAtzPNWXm2BZWxoyCabjUmLkkRc+5ZfnshO/zWf07+Huu4u2sZYazIFxzDmX/6W23DPy0dbWEX/eH+3Jn7RiVXEZDwTRctfcYPcGuIa5j1uPvuQpAe1eoGTrMiGogeH3Ypm5G/9ctdGl6ngkUzAmg1lc27PoLvnIW0TfzJzUm71uPqtos0eHvQdHUPDNoVPYeEAhepzo0nW6Re+uI+pwDPTBtXXjGkIJpBgXzHvH5pd/RHezAYUuicPqmEe+X7VpKbugp72UX39StYIZQMO8R7YFmyi6+CfSFbVXurmEfHm2zRFM4fROL3FuBvi8p0iR2c6iPaYjLnbXER7nJci3l23wvYntXS/gaZNWA5mx8VCY/uP83fO0r54LvJG2BvhFYmyWa1Jg8sl1Lw03eau+RYZ9FK3efvh/TEHlJRd+qCTrQh57tg+bHuqZkUjh905+cLNAd7KDs4puqKQ2kGtMQlc19c1zzkotumQgwnO5gB109g/uF3o7zHPjqRTKcBX2PFpmSSXxU3zXM9kALlzvOc8FXHv5+TTGPakwRA2nwR8RACqaIgRRMEQMpmCIGUjBFDKRgihhIwRQxkIIpYiAFU8RACqaIgRRMEQMpmCIGUjBFDKRgihhIwRQxkIIpYiAFU8RACqaIgRRMEQMpmCIGUjBFDKRgihhIwRQxkIIpYiAFU8RACqaIgRRMEQMpmCIGUjBFDKRgihhIwRQxkIIpYiAFU8RACqaIgRRMEQMpmCIGUjBFDKRgihhIwRQxkIIpYiAFU8RACqaIgRRMEQMpmCIGUjBFDKRgihhIwRQxkIIpYiAFU8RACqaIgRRMEQMpmCIGUjBFDKRgihhoksOaOt5lEJEBHNZUJj0Y9ywKp4gZHNZUHox7lohztbW9/q42LNjGu0wi33lBAtgjY/g/V7bokbyzRA8AAAAASUVORK5CYII=;" vertex="1" parent="1">
          <mxGeometry x="90" y="209.35" width="140" height="92.53" as="geometry" />
        </mxCell>
        <mxCell id="siOGssPFufM20Y7SlqJk-23" style="edgeStyle=orthogonalEdgeStyle;rounded=0;orthogonalLoop=1;jettySize=auto;html=1;exitX=1;exitY=0.5;exitDx=0;exitDy=0;strokeWidth=2;" edge="1" parent="1" source="siOGssPFufM20Y7SlqJk-12" target="siOGssPFufM20Y7SlqJk-21">
          <mxGeometry relative="1" as="geometry" />
        </mxCell>
        <mxCell id="siOGssPFufM20Y7SlqJk-12" value="" style="shape=image;verticalLabelPosition=bottom;labelBackgroundColor=default;verticalAlign=top;aspect=fixed;imageAspect=0;image=data:image/png,iVBORw0KGgoAAAANSUhEUgAAAOgAAACWCAYAAADUgcTJAAATzElEQVR4nO3df1DU953H8Sfusiyy4PJLFllkEawI5lwrAW5sqjZae5G78yLTZOTmqm3vzE1+1DY23pzRmzbmJklJay/ptM5cxJspudghHZ1A7hxtFVN7QDXBxBVUEAyL/MYFVtiFJdwfuyy/ESPKh/T9mGGG+X6/+/1+9vPltZ/P9/P97JeAn/xi3+Cr/55HW0MvD9KB08se6PGEmEsM2lgywr9PQFRc8OCDDidIQIW4E4M2lnmzEU4hxJ05PY3Mm+1CCCEmJwEVQmESUCEUJgEVQmESUCEUJgEVQmESUCEUpp181X9yefA7LJ90vYPf/yCcR382g6VJKWavKWny9T2FvFxeQ+6aPVg0FZSdfZJTM3j4u5JSzF5TNHXVGRTYZ6sQ90+mtZwNxlYqzmym+PPuY2U5G8KDaKhfyZGa6bxihxrndqzwA+x8KIeovpMcK30W2wM89BQBreSj85WgB9ATm5KIUeui6VIttwBwUNs2w6VpeI1jt0K9vxv+nm/EW3G17ubM0HE8NUAWnsEZPq7K5vIHwWAfEHRXL7nrczvD9TMTH0wzaYqAvk7uw6/7fn+e393K42vGWoofSuW796s03SXYun2/B+bwDcAzUISteeRGlRz9Y/79KoGYQWUff4Wyu3pFvprn9taLHDr74qwceoqATlP60xTkH+DxFCN6LeBxUPvBW7z4T7t5u/reCzheLrlr9mEJKOXUH7ZTxtCnXh9N3TpMoWEAeFwlnLl+neQl27DovZ/iru4Cjl94CW+xzKR9KY8NMVYMGmDQjav3LKWVz3Ku27s+ffkh1kYnofddqbt6SrhYs5NT7cOlMZpOsSfJjDYA6K/BVruTYzd9H+XB2WxK+ResYVHe9Z910dZxmOOXfkXT0A5Cn2Lr8m+TMt9bbjxtNLS8wrGrRSyzlrPB6F1uSa5ib3KXv6VITjrCptgsjL4z6HFf5sqN54aPPYJxUR5bEzZiCvK1Zv01VNl38+6NSt8WY97rgJ2mvpF72EHuV/ZgGbhM07xUTIHe+nJ0HORMz1rWLcrCqAEGu2i6+UPeulYCQPrKcjaFM9y6+Vo7h7MLQ8hEdTb+3BK5h9ylW7HoffUz0EZT2y95t7Jgivo5wM51ORhuV+DUW4nSgLP9RX7+SSHJSYd41LSWqMChequgomY3J1rsbM6owjofIAzruiqs1PhaUu/+onoKebncF9TgXLas+B7L5od534fHTl3jSxTUlPjqzFeG3su4dKn++mlr+TlHKwtwjDtLE7vHQaKvUfDfb7JthRG9s5bKS5XUOo0krn+et/L33tuuJ6WDgImWRxGlvUxFYyFV3V1o9WvZkLqDqP6zVDQWUtfrRh+ay6MpZgCMyf9B9iIrWlcJFQ0FVNyyw/yNrFt+AAtAQh6PxiRBr299awUe/Voyk/O86wEIw6h3U9dUSEVHDa7AJNKS8lgDgJkNaS+TvkCH41Yh5xsKqe6FqKhd/G1Klu/1OTzx0C5S9H00tBZwvuEkDQOhxC3az2YzXKnby7FWO9BFQ/1ujlXu5Vw7EJ7HpvgsDAMVVDUUcL65BIcmdcSxRwjew9bkbEyB3cPH+MxMSuIbbAn3bmJM9L5XbX8FVY2F2Jx6ooLDxldxUBJ6ZyEVjSdp8gRhjNzDFnMyro5CKhpLcQyGYYp7gc3B3s01E56nqeps7LnNYkvyDiy6ofopotqlwxTzAlsSpqgfH33IEuj01v3F1kIwHWJz/FqiAmqobizgfGMJDo2V9GXe41+o2U1ZVxdgp6pyN8cqX+PCRG+BtWxduY+0EHDc8tZHw0A0lvifkBtvHrWlPtiMp7OQisYS2gbCiPKVfbrusQXVc/n027x9DWqfy+XFaiC5gOvXtpG44ms8z8u8fsd9zBQ71Ve3U3wLoMb7iU8ppRee9X4Shy/g6ZUbMeg3AvmsCU9F6ynlzJ92+rthbdZyNhhXkQbU6UPR4qat4yWKa7ytknVJHhbtyCECNw0NmzlaO/L1ZswxQPNTJBmCcDkOcujjoW6br1yh2UApxGVj1oGj+UmOVPpaPnseT2dmY4rMxWEvwGHaxRag3z2iqx8RhR5wdf+Sd32tlSV+H1ZDN7fH1UsJF+yhxPQXcaK+1LvIdYTnk7KIiQFuQXqkFS12bFVPcuwWQBZbs46Qoh+zK9dZii++SB1Aj3cfdL7FWzbv+7NoT5EbHY0xEpj0enCqOhu7bRIhWqD/I/5g8/V8wnewyZSG2w0Ox8mJ68fH0/U2hz4+OLwg9G3ON3QT2L2bM74ujHHeKZ6OWYLFDOfsRSTE7wfcuJqLJh8MitmGWQ/Ojtc49HGhd1nwPr6TkYvF9BTUD3eHR5XBV2cLwrKBosn2Pso9BvR93v4ol+K/e5xt1wa5X23m9Lhx3RqzqM8+fA10qxOPf0UuRh2gzWLDuio2jHmZMQ74tJDq8F0kx59ij8lOc3cJlZ8e5Jhj5F+em/7+seXQoQ0E4swYAL1xD3vX7Rm9yaCZdOC8IRo9oI85xd6YsbuZfPychnwumVJJjzrE3q+00eYs5UrTWxyrrBy/ba+dfm0qK8w5pI8ZIHcCkE2kDvDYafTXXyl2V9f4gH7W6Q0ngG8wx+kavmasG3BPXma/KepsnALKWrZiWrSRJ9aW4+y5zI32Ikordw9fIkzB81nn6AXdLZBoZfWiKtakjFzRNY29jRDuPbdtfYXDy3pP4nDnYgoykwn+v7tRZfDVmVYTPe1D3WNA83j3p9tYrgeXvZJaB0A4iStMjD23aun0jhZ6Kii79msaR61zc7sL6M3naOlJLLE5WGM2krAglw3WHLLaD/Jfn+Tf+RrC48YDuLry+d+GMZ/Fn7XRAOD7g3aMHKn2v36q+xIlnLiQwcXIp1gZt47k0GzWpGSz2lzA8fND19g+5gN8Y1EqWncFtub3uHa70z9CPhdUX3uc15vWssa0jaWRq0hbnEXaom2cr3ycE+13fv1IlpQ81kWYcd0u4Xzze9jdQNQutkRP0J2fygO8i3Bv16DfX0WiHrD/lq3xqaQ+lErqv/5x2hfAs6eI9j5Ao0PTVYSt2ffj0RPYc5K6XiDhDXY+vA+L4yDHKjbz8w82YOsNwhDx16RP5xDN13EOgn6ejobm4WO4A/S0t5Z666i7FSeg1eiHy9BcAQHQ0D5Bazgk5gDbH36H1YG/4sTHT/KLcymccnShN2xi9diW2BCNni7s9U9y7HoBtuYiGubpRnyA+upCayY2fGhZFmb9Xf7R3hfZbF5VzPa4aM5d28mR0gxerinFpU0lZVH2Xe8tRh8N1FD1p52c+NRb34Gaz9GUOOw4Ab0uZ3hZ8EaMQYDbfpcj11O7txb0vVoafwpG8+MU1F6m0em7XzpDhbufTjWVsjI5C6v1HQwd1bi0yVgirRgHsgk6t50ybRzGkFQyV75DZLsNpy6NhCCgv5Xp3f59lUuOrZjCc/jWqoVU93Sin59F8gIznphQXr+YD835VC/OwhrxAjv/Igu724Uh7Oskh4TRtsDOoSsV4O7GQxImUx7rBt+jqqGEJhawIMRKXHIxhgWlODBjMYTB4GUcY3tr/W48hGGOO8Lm4BoIXkWyMXV0XbRWsNpgZVnKO2xps4FhE8mKdIH0+iTiwl5gp85KXS8YjanogSZXhXeDCetnYk5PH5BEyuo38HS1YAhZi8UYxcgubnN/F5CExbqPNQ0nsQ19mI406rxZsbsXEB3xVUwBbhrafjWj7//eWtDq77L7J7+n1glGy3KWp4Rz6+T/UTtDhZtY38x0MezbOV5filNjJSU2B2u0FX1fKWVVvuH9muf4XfNlXForKXG5pEdb0fZXcL76JSqmeYiyiz+kzNGKNmwj1tgcUsLCcDryOX5x6LqtlOJLr2G7DcbwbKyxOSQHQ1vzSxy94jtK7QmqXV3oDdmsWfoCqwGan6W4voS2QTPJsbmkx67FOFhDVd1eTox9QEbNXv7QYcejz8Ial4t1wUI6Oy/jGrnNjd0U3byMJ9BKWlwuaQYXbb13eV02gYG7Pk9jz20R717Np7oXjOE5pMf56qftIMXXfGMBE9XPJGw1r3C+uwutYSPpcbmkhLip6xw9mlV38yQN/W6MxlzWLXuKiR/MM/K85WCN3UicppW6+uc4Ujuzs0kCeKA96mHyTCIh7kwmywuhMAmoEAqTgAqhMAmoEAqTgAqhMAmoEAqTgAqhMAmoEArTyoQBIdQlLagQCpOACqEwCagQCpOACqEwCagQCpOACqEwCagQCpOACqEwCagQCpOACqEwCagQCpOACqEwCagQCpOACqEwCagQCpOACqEwCagQCpOACqEwCagQCpOACqEwCagQCpOACqEwCagQCpOACqEwCagQCpOACqEwCagQCtPOdgHE57M0ch0JxkwWGzMAcPa1cMNRjq25GGdfyyyXTsyUgAOnlw3OdiHE9Ok0ITy27EdEBCdOuL5v4DZl9flcaz/9gEsm7gdpQeeQseGsbj/NDUc5fQO3MYWuYGnkegy6aB6xPEPfwG1uOMpnucTiXklA55C0mGwighPpH+jhVM0rNHbb/Osau23Ymov4quUZFhszeMTyDI2f/DN9A7dnscTiXskg0RyStnAzAB/ePOoP54qYv+EvF/8jYUGx9A3c5mzdm/QP9KDThLA0cv1sFlfMAGlBFaPThJBgfBiDbuGo5Yagheg0IQD+68sl4WvIMH8LgPDgeN6/st/XtS0jOXI9S6PWodPMH7WfvoHbNDkv095T+wDejbhXElCFGHQLeWzZj8aFcyRnX6u/2xoQoPEvnxcwfCrbe+pIjoSI4MRJB5M+qHtTBpLmAAmoQrLid2DQLaR/oIf23olbOFtzkf/3mo6zLNDHEhYUyyfNx/3Lr7WfJnK+BUPQ+KDrNCFEBFu816jdNrklozgJqEJMoWkAnK17Y9ojsB/ePDpu2dC16GS2pL5ORLCF2NA0rrVLQFUmg0QKGbrGvN8jr0P7n6iFFWqRgAqhMAmoEAqTgP4Z6uipA6Cp+9Isl0TciQwS/RkqrT/MhzePyiyjOUACOgcEaQ2sTfwecWFWWpxXxq2PDllKQ1cFZ67/jP7PXNPap4RzbpCAzgEJxkzMYV8GIMawfMJt4heks9iYQU3H2Qlen0FEsAWdNgSdJgSnu8X39bQ/SVAVJwGdA662/Y7BwUECNUGTbtM30DsunKsWPUHaws3+2zdjPYJ3UsNHN38jExYUJQGdI661/37a2xp0C9mQ/MKoaX5NTpt/gn1ksIXY0BUEauazNHI9CcYMPqh7U76epiAJ6BeMQbeQLal56DQh9A/0cKmlCFtz0YRd2QRjBpnx38agi+bRpD0yP1dBEtA5YlHoQ2jm6UYt63TdpMvdOGrZhuQ9/nC+f3X/lN9aueEop7Hb5v8OaWb8Djp66+SbLgqRgM4BS8LXsG7JDyZc9+uKf/C3jqsWPUFEsGVa4RwyNG/3sWU/JiLYQqZ5O+9f/bcZLb/4/GSiwhzQ1nMdh6uenv52/w/A9Y4PRnVdVyzMBuBSS9G0whkbmkaCMYO+gducqn4VAFPoCmJ9k/bF7JMWdA7ocjfyW9uuKbdJMGYQ6Pty9sivpE0mNjSNv/rSjwE4fGErzr4WPnWUs9iYQYIxc9TjVMTskRb0CyJivnfEtslpu+O9TZ0mhEeT9vi3HzI0ihsx33KfSinulgT0CyJUFw0wrZZv5EDSUNcW8N8LNRmki6sK6eLOASG6SNYv+QGB84afLxQWFEN1RwnnbhwCmHAywlctz6DThHC27s1RA0lDATxV84rMJFKctKBzQGzoChaGpBAevNj/o5kXxLKor6PXLgCgvdf7DZWhlhTwP3n+sWU/QqcJITY0jVWx3wTgo8bfjGtth0Le4duXmH3Sgs4B1e0leAbcE9wHbcDl6QTA6fZ1T0eMwJbWH+YRyzNEBCeOehhZk9PGRxM8KiVh6N9IuGXanyokoHNEnaN0yvU3HOU8gncmUWxoGo3dNv+soKGQAuOuO4foNCH+//MiU/7UIV3cL4i+gdtUjwjkyGfo/s/V/TQ5bXzqKOf9q/snvO788qIn/ANHElB1SAv6BfLhzd+QYMzEoFtIZvwOPvA92a+x20bjlf2Tvm5p5HpSfU+tL60/LANHCpEW9AvE2ddCaf1hwBu6Lal5Uz4EW6cJITN+B49YngG8/4xJJsurRVpQhXT01hERbCE5cj138z8hne5W/z3Msded33zol3zqKOeGo4zuvlYA/4ju0sj1/q5wdfvpKZ+lK2aH/H9QhaQtzCYzfsfneu3xyt2j5t9Gzk8kM37HHScd9A/0UFp/WFpORUkLqhBbi3cObVpMNoYR9zPvpH+gB7dn9HVje08t71/ZT4Ixw/vIk/mJRAR7p/A5+1rp6KnlhqPc//9FhZqkBRVCYTJIJITCJKBCKEwCKoTCJKBCKEwCKoTCJKBCKEwCKoTCJKBCKEwCKoTCJKBCKEwCKoTCJKBCKEwCKoTCJKBCKEwCKoTCJKBCKEwCKoTCJKBCKEwCKoTCJKBCKEwCKoTCJKBCKEwCKoTCJKBCKEwCKoTCJKBCKEwCKoTCJKBCKEwCKoTCJKBCKEwCKoTCJKBCKEwCKoTCJKBCKEwCKoTCJKBCKEwCKoTCJKBCKEwCKoTCJKBCKEwCKoTCJKBCKEwCKoTCJKBCKEwCKoTCJKBCKEwCKoTCJKBCKEwCKoTCJKBCKEwCKoTCJKBCKEwCKoTCJKBCKGyeQRs722UQQkzAoI1l3sPhu5CQCqEWgzaWh8N38f/3eVqjKgmS4QAAAABJRU5ErkJggg==;" vertex="1" parent="1">
          <mxGeometry x="300" y="209.35" width="143.33" height="92.67" as="geometry" />
        </mxCell>
        <mxCell id="siOGssPFufM20Y7SlqJk-16" value="&lt;b&gt;&lt;font style=&quot;font-size: 23px&quot;&gt;Connector&lt;/font&gt;&lt;/b&gt;" style="text;html=1;strokeColor=none;fillColor=none;align=center;verticalAlign=middle;whiteSpace=wrap;rounded=0;" vertex="1" parent="1">
          <mxGeometry x="517" y="193.01" width="131" height="33.1" as="geometry" />
        </mxCell>
        <mxCell id="siOGssPFufM20Y7SlqJk-24" style="edgeStyle=orthogonalEdgeStyle;rounded=0;orthogonalLoop=1;jettySize=auto;html=1;exitX=0;exitY=0.5;exitDx=0;exitDy=0;strokeWidth=2;endArrow=none;endFill=0;startArrow=classic;startFill=1;" edge="1" parent="1" source="siOGssPFufM20Y7SlqJk-17" target="siOGssPFufM20Y7SlqJk-21">
          <mxGeometry relative="1" as="geometry" />
        </mxCell>
        <mxCell id="siOGssPFufM20Y7SlqJk-17" value="" style="shape=image;verticalLabelPosition=bottom;labelBackgroundColor=default;verticalAlign=top;aspect=fixed;imageAspect=0;image=data:image/png,iVBORw0KGgoAAAANSUhEUgAAARwAAAEcCAYAAAAV9AvgAAAAAXNSR0IArs4c6QAAAARnQU1BAACxjwv8YQUAAAAJcEhZcwAADsMAAA7DAcdvqGQAAFc0SURBVHhe7Z15nBzVde9v9TLaxSoJ8JYYCTBIAm/xc0DCybPRhskniY3xiw1Iwn6xMbuxkfB/7yEpttmNndhIwltiG5w8Y2kkbH+SIIHJS54NiF0SeAdtWEb7zHR3vd/33KqZQUialqaX6p77g1ZXV/VUV92653fPOfecc6PF02+OXUBAZpFzcVx2URTZpyjOu0qurK2KK1QK9l62Q/peVHHDRhbddauu9F9uQ3zpwn+Id720Rw1Rca0muG888w16SgEBGQZkk8uJTJxIR58hmziOXS7OuZL2lXMVdopsSu6Pp76hrclm2fxvxjs279K9ql2Sfa2GQDgBmQaaTSUuuUikw3YkScuj5Ujo/Gftz8funX/9dvfhOy9sW7JZubgz3vrsNtumDSAdtJxWQyCcgMwj5/Km0XTrv1TIcpW8aTqYUTc8eG30viv/vH3J5qYH4sdXP+fKhZI+Jfcv0onMpGwtBMIJyDTMZyMqqYhcCiKeVMh6cvvcsLHD3IIHr29bogE/XLIyXvfA0yJYfbCGiExo2VSTtBwC4QRkGqnPxkynhGxwl44aNcZdt/KKtiYb8FTns2LdkplQ+LLQ9srS6mRoujgfTKqAgJqiIuGSXiPiQbgiaTZdbviYYe7azsvbnmwWTftijCbj4oKZjj0Ok4pWwIcj0qm0nooTCCcg0+goF8ycwlFakcCNHD1qyJANJmSuIhGVhsP9FytFM6PiXKRdRe1vvWYIhBPQVFSS6W4Qy25gG79NOemZZj5EEjwJ3/CxHUPCjFr0nr8zsimJUNBkxDC237YtDECsg9e4BREIJ6CpKIpcYrohtkOubCZULE1GRoSOEl+DoJVcfnTOXbuyfWNsUtw+664YEwoDMmZWrs0QCCegqShHdEFGbh/Mh3M41jbOC3OMinFGjRzuPt3Z/mRzy+y74j27u82MKuX13oIm00AIhBPQVOAKTWGajjSclHjw3RBjfNWq9jejvvLBu+N9u/doS7eqNugoDTPSbTcEwgloKvDNWKqC3iGfyN7LZkrhu1mw5rq2J5tl8+6J/7Blu0i24Mq5LnMKEw6Qk2HZbgiEE9Bk+C4I6eSjgsuVpdlI4MCUmafYeztj6bxvxFs2bLdtS9sg1kiaTVn/VXJ92l+7IBBOQFOBnwZNBq2GOV/pNiZ0bzjrRHf+wjltrd3841Xfjbds3Oq1OYgGh3kkIzIuu454mJmV7YZAOAFNhU1OMbTjKFZ3xE9aGFtwH7njorYmG5Ixf/nz32nLZ7qX8iW1Rc6nMKgtSiIdmwZvMwTCCWgyKhIu3v3IjpBdv6K9ncT3L14Rr1v1jCdaNDxpMvkKjnI0HP8Z0jkSDcfSQCBvvaef94d9hxgf3vUbvBOMwLZ97m19//sc6/2uju1//HAQCCeguajkXV4je1SOLFfo7EvflRxoT/zkzn+Ln+7cIOHNG7kMGjiYE0LwRKLzqk15NwJJiAWk71byQz/Nd8pRjxGUvunPk/NRzZ4aPPnh0AdGhqigFX2fdx0/XATCCWgq8ur0dOA4X3bjJx3nps87p3f8bEf8170/NyGvSMjTCOLBQEqhEQLkkZIEL9MWRR6ehKLeVx/p8F7RXxR1Er3YRzIoJGVHyl6jwbcmpKRTEVNxnrLe+zSd6hEIJ6CpID+qIgEcMXqEm3f3JW1NNpTzzUvOpdPpkwTX7x4UoAd0E38+f05eeaokEjwJsQkxRJFoKxxPiQfGitX+2uEifT/dX8B5LY2GgSB2PUY8/C0vNKEof2TUEQgnoLnAV6FOfM3KT7U12Sw692bJsjQDk3Zv7tTEpBIIkDRzpyDKgTCkgVT0W6b1pFoU2o2+YzFO9tE3NzE/BFqKQXr3x7m8+dXIZ2P2zChIBFOqQDrU49HfYlaRWHqYCEXUA5oKBO+4U45xH1t6aSYJp3PR6vgXj/3W7dz0CtJoJgX+i9yYgpt89qlu9sKZA143KQtdu/aZlmCCnpBNDmGuAemkphKv1PTxzl1+IyeSK7ujTzjaHTPuKBcX/O+l30Vb+fWjv9Y21+LNJzvGObWdrxSlgRITRGkMUY2IJg3OTEmrWlBEPRBOQFNBx71xzWcyRTZrl6+Nn+p8zm3fsl3S50mhz5EKvP8CsuT6j51wtPvEvZcd8B5unnNnXPlD2fUUvDBzHsuKtxNyvsETDgRB0GQ5LrlhYzvcm6a+yY0/9Vg3/dJpR9Su31/4w/jXP/+V27u3S2RT8qtj6F7NwazjEX4fgXv3Hp/qEAgnoOk4c+YUaQnnHZFg1ANfnH1HXNqJX0MylmgIqRYCwTCqI2gg1RDiXLfVp3nnh6a4917xvt57gWy6djALpO/HRZ2n7PKyqWRRmabEDJMnssEg58ZPPM7NX3ZxXdpwxaJV8WM/Wuc6SiNkYvXoXksuKuMHOvxZtkA4AQ0BIkpFYr++FJ2Vz851jMrOGlLfvvI78W8f2+RK+i81S6rRPrh47sW0HQkj2sXf3HlhRDIm+VFoBoeC15TY0D+YMWhTHMCBm6R4eNKznfY7oNFm6NrlD8c/+95jrntnj4jHEy6R0XZ/XLOZh+ykzUTMup39CSkQTkDdQSe0GeDkM53RavRW8m7a3LPdtHnvapjQHAy3zvxy3LW7y0wGZpDIY8K/YgF0yXcODpGBNJxCWSaN7qQkLaYgbeZAAncgmL8E367NEOGQhVD0x/y2jtE4EBlaBYQ0ZcZkd/6NM5rWZhDPmuWPeOLD4a9LhSLzhEjrGrnn1L9DW5oTO0EgnIAGQUIp7QZHpJ8jqbjRo0e7qzo/2VSyWbvs/8YPLXvYkZRtBIGAS5AQeSoNeh9Fqu0cApaf4f+W0T5GI4EfpC0NpOGYWca6W/q+zSyJtcwJjJM2+dsRo0a6d3zwLHfOvHc3tb3641vSCH/zGKkZvn08wWKKygzVdaPHlmKRkO4lRSCcgPrDTAVKhlYccWU+wrbc9LITKxf9KH5s9ToJPGaMBF8k4Wdi2C54rSKmPMShtRSvlXhTyIRNf0vxrDTr29S7QwCSS305qbkEaZkzevxx7m/vm58ZkjkQFp37BVQxEUyHOa0pjdqr6UW0QWJ+CRDOoek3IGCwYOSX+BSkbuO5IdBv2OiO5GBz8MMlnfG6VeskIviVvFngSQdTyDuJq56ypiyq7gtW4MV5CuUOP32eG1i88GnljdjQqnrsNwuji2763OmZJxuw8MHro2MmHEv4phFn2YgavUeX3o9sUgTCCagvJMBmmjCQqxOSsPiOC9+WHGw8frB4ZfzUyueQdNfjus18Mc2C9AqNyr2Q4CM41SCKdI+SLyMrmY5kfucKGFTV1CRW60T6nk4wcsxId84l77JyqufM/W+ZJ5sUhASccPJx1paEEdB2BzNFA+EE1BWYHJhUlYLP68EfMf3Ss5siTD++41/jZzrXm0CYKYPjRIAQXSHZJ3DJ1Zb3NOcympAIqySzEUEryDwjTcDylAYCxFYuuKmzJ1u09bT5rZlLNn/5JdHU971FW+h70trK5d727I9AOAF1BQFufuTXuwT8j6e9OTnSePzX9x91eY3CzEKZZmNr0eglU0CKiR+hTSRw+uo7aD4DwBboS8iJEhO+hJgISy9MyYEw/uQJbsFD10RzMhSLdKSYc+OsaMrM07VVdl1SdA5UBD4QTkBdwXjHv8zAMB1+wcJZTREsW35FWkhZl5NzHaZZSD3REW86ebIBfOblfTkDQyKk75Esyb2msTMGc5Cj5XnSLfWz0fBj4TivV8Bes3C+nu8ZIh3IF/TdnLQ+tXEgnIC6Ar8NwkZnGz9xXLK3sfja/HviPbv36WKYTWLqFi1E11SFBjMQchTN0rmkD7kCTuiyPpuJJVHDJ0SSIzM3NoPjCWfS2ZPctZ3tW2SMQWXqjNPtblOKpaohxBsIJ6DOSMwp9bz5TUrQ3Pbc703T4Brw1xDrUiuYNZVMazMzVcjnLQ4FLznClsuxqJ3uP59zR084yrSaDyy+oG3JJsWcG2dEr3vrSdpKn7+nmkA4AXWFmSt5RrrXTpE2ArfMvlPDatLhbYTNu4I2+Wz+l0HCpn/L3TphyUhGCo5IyJtXEJERnDbf+Vdvc5/43sfbnmj64+LbPxyNO/lY0269Dy+YVAF1BgLHyH/CxBOSPY3Dmnsejrt2dRu5RKg4FhPkg9IQgFoAU8pFRZeuugDxQDCYkgQaHzNhjFvw0LXR+676syFFNikuW35JNGz0cCMb+kIgnIC6go4G5jXBOfpE5zNew7DOLjJI1HojG9N67OOgkJ6jJycSY4pcOo+f8qq4d37wrCGn1RwI13Zebm0A8QfCCag/+s/cNBA7Xtzh8nHRAvDS+jP2r9XwHbw55eG1GupaVfJoU3krdrXgweuj917150OebFK84wNvtfdAOAF1BaPa8FHDk0+Nw0PLHjHfDYgweWzLk4w5kCtRr/Y1GNgZMNlyOZFbToI19aDFuIYy3nfln0djThoVCCeg/nj9WScmW43Drx/7LaxiU9S23lOy38N/Ppgfxzs480aWKSlZlT59TgFpAZul0j+jThwZtJoBcMGCOVEgnIC6AuE9aRLTo40FcS/edDowIJKUcDzBpMTityuVkpGVp6acrMLYkishHb6DCcVfoES948Kz3BXf+dtANFUgEE5AXYHwNiMRkchfSGd/pCQDUpIhqzvdn+4DbOeJFrZlUhAWH8BHbE2XmOboE8e6G9ZcF2Eu+L8IGAiBcALqC6aKmwAWajvY2kmvIh290s+YSek2JMR0Pp/RlPrIqWj7/uySs93ffvdjgWgOE4FwAuoKpqWbgTe97Y9cvvTa7g1x9NdioJdeAiINQdqLmU26bDQaIyG9yrbut8771hPcgjXXRFmqvtdKCIQTUFcce8JxyVZjMX3uuyOKfadk0p9k+oPj6TF7py4OWo0lY5J3hS+n5EaNGuEWPnhd9D9uvygQzSAQCCegrjhqwphkq/E4Y9ZpRhwQSK8Wsx+YjUqPQzj2ziqTrttV8iRfRu6sGVPc1at88FrA4BAIJ6CuKFHIuElgGnb48OG9pHMgEA8I0aQ+G1ZqsBkqvZ8y+RS3cO2no2pW1wyoDoFwAuqKGuRHDgpXP/DJqDiaqnzUVCaRki4PAcEhek+ohOlv89lo+5RzJrnP/ftnowu/9JeBaGqMQDgBdcWB9YrG4rqVV0ZvPOtEV3AdSYU+/Z+noHvq0M65o8eNdW/70NSkfMRfBKKpE8IyMQF1xevPPMl99M4PZ0aAH7jjX+MtL2yR5hW7Y044xo0+YaSbPm96IJgGIRBOQF3xure+zl0cZnYCEgSTKqCuYLnXgIAUgXAC6opcDct5BrQ+AuEE1BW/e+HFZCsgIBBOQJ3Rs6sn2QoICE7jtgdxJqzrzQrYjshZ4lAIgiPC1mrF8NGbPQvXXmsbN8+5M+7e6ZeptbwiWy9a77aj4uJK3oLlKNw5UOfhhGRU+08BjcC9N/5L/OvHfuN6dpCaoWesfdTtYS2s0/70zW7OjXOa9jwC4QwRGPFUcrYcrZGMOiLlN9NYlHPm/jc3bW7fErw3z/pS3LO7ywjFE1NBvTa2FSkJkOtxJVe00g2HBr9LDlLyMaBOuG/BD+INj2xwkQYXnhft7geJHhGOL6nKyhlkvnP8nR98m3vvFY0v7B5MqnaHOhcvOl85eecFKjGJic5NmTH5VWQDrlv1qWjcxHE2OhrZoCEVcraWdkWbkM0BkrFfCw2t9y24PwxqdcI/fHBZfNP0z8fPP/wLZw8kp0HByMa/iq7D54fpu2n2O8//P7//n3ouKxr+XALhtDls+RLIJjWL1PkY4UzHllk0WWRz/o0z6I+vAcvQjpuUZnvrb1l0SbCC5DpXNTNQLJfyq8d+nXwKqBXu+tDfx0um3Rq/vGW7EYmlbUA2Gg30ZgTDc+6hCFmO1dRlXvGHsTezMIs3PPycW7FoZUNJJxBO28OTQr6Ud+UCDlx1Ng1zLE436eyJ7oKFByabFKyWOWGiJx0r1SDiQjVnpMxV0XvKUTk4jmuIf7rie/Gic78Qb9+8M9Fc/CAAGENY29ze2YGvTp/RSnNmVjFY+MdtCat6PbH6WfvcKATCaXPE0kZMjdawl5PKTSejs43743Gu2pwh1pSaOuMUV4jUccusNanOK/Ihu3ogWAfXd1cuXt3QkbTd8OPb/y1ecu4t8S/W/Upaa2T+OMgk1jOljW1lU2kv3pRCrHH283h9XR8ziRF3O8ZWZFUR4yjnvnLhVxv2bALhtD3QaJijKqt/FlxFo974ieNsRcTkC1WBmY3JM0+VaYYPKO3UA8OsL/3mc2s3JHsCDhcsV/z/vv9z853R7ixJE6PG6KnmirH54szEjfDX+Mdq2o89I31HJhd70VB7com2qb+HqHg+r2za6fc1AIFw2hx0OjpcXmRTVic86nVHufnLPnJYZJNizgKRzpxJto1PgPMOhLJ6WF4aUdfufcmegGrx7Su/Ey+efmu8T22XJxSBCoZ6ct4k9uuX44uBaCiNSh0fv+Bfpe8dwo9YfcIWJXbFSlH7vPPYwh10pKIP37/x//AHdUcgnDYAHYrOBLlYZ2RkwzGcHDMFWpI/bGzeXf6dwRX+vuCzc6Ib1l4jRTyJ40GdT4TAkFyLjbCRiE4/7/c495UP3t2QTt3qWLvskRit5teP/0afIA2c/j6GynhE+9BaMYvSbV5mvh4Efgli9Q89nzjyJpZNKOgd0+yVl3bY9+qNQDgtDtNgmKqWgFPrxTohsxUclNpsZCBVOn9U3urC2B/VANSNMYelfiNn/gTMNoZTjby6lnzE6gY+xqciNZ7r/MPmV+xzwMGxdO7X44e//ojr2tUtQjj4ulq1AmXHILEXX3gp2VNfBMJpcZhikWgaBkYwGfum5eTL5lwcNWK0yOaKmpFNihvWXB9VpJZDdIVyUQMlNEeXEulE3aaym4YF8WkvhPTVC79uXBjwaqxZtiZeMv3meOvG37tS2o6midQXpqHq5/Km7dQfgXBaHqjImE1sMlehTpqSDykNOnbV6k/UnGxSLHzw+oi1w1OVH20KrxG/DekR+coUPMAMe/mlrW7t8ocD6fTD0nnfiB9e/p/wckLezDCJsGGCOsObvqQ9NGb990A4LQ4jGwk1sFmHJEeKYYs0BEwfO1hHXNt5eTRs9EiRjp8RYSoevwAOTYtCS0KSbXpWnx9a/h/2eajjx3f8q7SaL8RbN7wsQ9j7UzBPeX5G1OnAUWfgYJ5w8rjkU30RCKcNEEU4i/vC1wvlYWbCoH3YFxqAazs/EY0aPiJZMA7C8+RiQsO7tB38S2bqCXdf9s0hreUQ+/L/7ntUWo2enWmleqU+N56luBpfWCNAPNWb3vqG5FN9EQin5cH0KOtde9LhVcr3uHd+4O3J8cbhmtWfik46ebwEqMfMOvxHrMVtJCMS8kREGH7stq7f4h648ydDjnRW/++VlpKwffPuZJBQm6itSDywMAMc/FEhCehLbNE6AoLjZxq1kmggnBaH+UmYlYJs7L3sps443b3vqsZnAoO5yy+Oxk88wa7LMtMTs4DRmq1KLpm+1Wj+s/set2NDBUx1P/qj9WoD4l+ImZHZlMxEacs72SWSpINYG4l86g2s36OPOzr5VH8EwmkBmE0vAU7Vbf/y6rcdx9uI2SK7/8yZZ7jzF85KjjQHH1t6aTT+lOM9Gdp1J8Rjn30n92aWc4unfbHttZxvXfVPptUw1Q2JEMbgkgx8HxOjj/ZPX/t4bXDw4kn7W/Cl3v0sIujrSxyfPGdKsr/+CITTAkjr1lhnlKCietN57LOOIMyxyOYNb3u9m3Njc8kmxbylH43OnPmW5NPBgQjcPvvLqSS0FQjgW3TuzfFvfv47IxAzX4iZ0l2ng0i9we8QfNmV63EVMQ+5dMxm8qLfoG1Nm/euhvWZQDgtAJyKBex72/af1Vu0QR6NH6UmTDrOfeSOCzNBNimqWSIXAt29c5+7bdZX2op07rrw7vjh5f9hzwbHMCRj2kZSLsJ8Nw0ADwDSKVg6g36V/mJmLUacc9Mufrd9r1EIhNMCICy9K9dlI1IOm1/v1nH1DhEdO+loq12TfD0zoFRpsnlwJKbFnj27zMfhd7YuyH/CfHpl83ZXjnpEMz0SMh+NzfQzDlqIBzM4iRaoK2jQnGlS/L7vIujIxEt1jB7ups0/p6H9JhBOC4Cp5gKZwGVUYEpGejOLJDx3dN59fNncDJLNXXHXjoHr4OBHwJ+Dtta1o+SItk0OtRRWLFrlzadHXxJ9ls1PQw0aSnoSn2RLDCfaKO/FSENFo+4UlrNcKz5Af8RLFS1+yo43EIFwMg5z7OGswTFciF2+VNDI6FMGCmNy7jM/rF1+VK1AkmbXzt3WtQcC3+FbNiWMYMaR+7tzbol/2CL1czoX/Sj+X+d+Pn5y1bMiEz0vPRcLetRzs6RKZqQqZT/VTc6ZQJ0aKvHZdxsAfx26pkq3XSP1jN5w5gnJ0cYiFFHPOBBGs7sxo9R5KYBFzE3HqGFNGaEGAsmHL/1ii7ixqEEV4RugeyF06YwNjnHxjuTT9p/45te7ecuPrJRGvXH/ks74yZVJtTwc+SKTNJLaBge9c+E4if2g4WcVIRmEHoItOxFA4purJ5jRZJKBtBeuY9jIYe66Vc0ZqALhZB0mkN4GB2gE+G8Wrv105gRx6bxvxds2bjPqwEdg5sMAQAhNWNFutE0eEX+VlktmdJ42792vKfLeLNy/eGX8lLSZnK6zXERj0BNJSQWyrMhcgVx0M7FsJvbnuSFuTt9NY23s7yR59dZy+H3IzROdD1FoRLrLwRAIp8nA6Yt6bZ2CzkjHlcqbdhDiNui8NkImI2UzO8zBYMuUPPyCrps4E66fmRh1eH94UOA8o08a5T71nb9t2n3jDP71Y78z4oBIzDRJBPhQ4IIxE5kZQjstJ44bb9rUon36iAuiZ0ACaFv4+dBrCAiNyiLFQrdb+O+fbVobgkA4TQYkgkUhObWuAqHYSEhH1guygYwsDiejZEO94sc7nzRTjxHe7kFXjbOUGJDBwEhXMHNEPfWoE8e4y793WUPaAEfwxrW/dHv27PHkogtAW6EWcHqPiPahwbPUfZR18QU9T1ldBT3wilhiILKqCpwjuTbzgwlGNnoWXCfaFoTHVPyU885w779xdkPa7kCgSkAgnCaDjmwdhMzqvDoHU6mJRkNnsRwbnI3qWFlcwXLlTavidQ88rQ4dW83dgrSzkuvR6JpkrQ8S/hwys9RLK9rGMiFHqziq6E6bdrqbs/C9NW0TyPPZh9a7rh3d5vdgNOj1zQgpAQL2p0J+KCDvRkwiBeJhMBe5r/7nOmLAwmgwmHW0FQ3EZw7pZf1LmvNZM850sxeeV9O2Olx8+4rvBcJpOpKOh/PQB4WhrnsbH1jejTr9GbMmuQsWnN/UDrM/Hlr2SLzm6z/1nRrS1F2YxpZLs8IHTziQDVYIdX0sAJJQAO0jT8tQobpgwb3+zJPc6992gjt37vSq22jNPQ/Hu17c6TZv2OY2Pb/Z9nmh9Y55Ixqdn20TbKBBgHusFnbteob58jC963ycX+gliEGCduY8RmAy2cSS1uxxPjHTxXaTZ5/q3n9D8zQbQM0f6iYFwmkyECLrGHQafWbbll+h46jnQDYs0dLM9aAPBuJOrHcjoIypCBBEI9K00R9hSL57pEC4LWuaUHzOq5/x5oP/PekMdsxny0ugk7/pc9xCfrbbjntTSOBaBQ6l5O5/S9RvBed1bn0/p5+28/Bz+nJKNn2Z3P48BwVEoPNDkFTVs2u0QaVgv5Ve85HCaknrfDk9A78kEEmhOi8/o740ZdYZ0gKbq9kA+sqbpr5J1xTQVNgaTwimOrVpCvgH6EDq1wSPnTHztOySDYKua85FPt7E6reIKO0eEGJeg4QJNg4uNYh+zfblI68B8sqXIaKyfrNvVgwZNFowwYYQdD164ddICaPv2oy6/Csho1JFxKSv+WxuCK2PtBBi/z2ctFUENuov+NO8zEBPlJxTf6+2Mw1qsDCy0T3YDSRajU4LaZ4x59RMkA0R5DwbXw0yoKnoVYfVY0xgEnMEAjr+1OPdBU3O/D4QTCuGAxBgfbZZGF2zOShZPN/uhRHXf38w4IxUDrRz0WFNcNE40EB0Gczs6RCCRmf2WgrC7Pf6d09AxPcgiOw3zQAtg7ZWmxOjkn7XCCyCTPzMj5Gdfg+CoHQE+/idvP4bCGgegMs/YdLxjhUvbNbIyNAODQqcw+pKQ16miXmy/+yaq6Nmm1GABfwsS15XaH3E7w5oFngIqN0Iq4c3S8adNs5ddvdHm95h9scts++SrEW9M1KpkxLtxuTHBCwnwfSlGAYLztkbaW3kIE2GNoI09LtM/dqqFTJZIB+0Ep9WQNMRwt9HCilpeNNKAm/nkSBI27BVRdEOjIj0THgZ+A5vohf9Fs7wgv4zs8UfOSTiHLlUeXfcKcfYCqbsS+tA1wpW7kLAD9gxosMteOha+50s4Gff/7kfLBLTMRBOvaGGZjlV9WTr4Nb4CSwXSkBDoPMyckJAx51yXCbJ5gvn3xGXdnYnGkQyQ2MjNSq9v1wjBx21Y71CO3j48wo6p9/yI6ZpOjaq0578nv/ch77tvmv078kZfdvr+dg5k99Jv5OC/elvvdYU4ne5Fh4zz9m/o61yveMmHec+dve8V53w6lWXRxOnvVlbIjmdzw6ahqLfUpvSX2yb/YKdT+Bzuo93/lbsr+ORO/k9b2paBPGB8LX537KrtiZNfF7BaVxnGNkIiAmhGIy8EI9Nd1uX8UKSU2erqKMVxhbd9Suylx9168wvx/v27PUCZcJInE3JfBNDGamG6v1LIjfITvvQtNAAR4wuuGsGIIEvXfT38e7f7HXlgidH4xvOmWiPnkiT8wueaJn9whEtQjv52MNeurneIOZm7bJHXkXcbzzzDYFw6g4ElBGIgUgknwaN0UVRz0v5kiuUC+o8XW7UyDE28iV/mRl8bf434pc3brNpe7KM/YjlO/9Q7zzen5S0C081IRw0j+LY4Yc1eHzrU9+Nf/nkb41EfCiAJx5WTfV9Rr+TmLKQ/aTJp7iL7vqrzPUXQNb//n0jEE4D4LUZHJqo2n4kREuwaVseSURgWcmNHDPcXbPyU5nrPHfPWx5v2/j75FojV4okSJUOaWOYFRIEmwUKSAmiwkZP5IYfNdxdt/LIB4/7Fz0Q79i03f2GdAoBbWbi1D9yI08c6S5YkL1Zy/6460NfjXe8tNt6vtfiPQLhNAyQjI8BiTX6mRGSL4tmZEJJu8HWv+HBqzPXiZbP/Va8eeNWo0mvGid+E42u+GjMaWz7hzb8MOLbwQYTaSE3PJgdx20jseqm1fGjP3qi15GfuMQMEI71/YD6As3Gk01i6etBMEU7rDzclQpdmSQbsqKJvrX4GpEj4PptlkikY6ah9wMOadAmhcRPR7vguxmqZAMee+ApR2xWWUzTn2xSBMJpAHAQ2yiINoDwVnw4fim3z33u327IXOekqNRTq9abY5LAN7Kc6TxRXgLFFKxpaYmGM8RBm6TtQDzMgjXXDFmyocoj7wyraHzmz9oPgXDqDEY9Gt+SGTUaYkYV3TALLFvQwJUxqwWV9h5f/YT5JEyjEV1aIFy+2xHsx6QUGpo5M4mSHuKIcNwwkKit/uQD70j2Dj18+aJ/iHt27tOW6fBqk24NTq/t3oFwagAE82BAS/Av7+9gBoK6xFPPm5x8I1t4ctVT9m6L2HFbJkyJZmNTtP3t8sFrOEZsSb/0bSQyU3uOnzjOscwMh9KR0tpR/0Di/vPgf78avOp3UiHSu12HHcu5M2ad4d57RXMWH2w2vn3Vd+NXXtyjwUktoc6BNk+OW8y07H4IhDNIIBzeoXoQRN7nYd+zHTn3lpmnZmb9qP7onUBAiBKzr95g1gsNkCBIbH9WopwwabytQjF74ezo9Fmn6VhyHbqmvgA8tWSyamW9URDZmran38VsArFMY7ZpMFY6zWIKSiOwcnFn/Kuf/0bP0FMJQaw8T2KJcgeYwQyEM0j0J5sDaTqWtEeIP1GngnXODE5rLpp2i0X1W5dA8HVfr42orQMiTE21kdtnysO4Sce+askb2gq/iBEM0csIva6rKIIinKDeYLSmNAbkW0zSKLgWcxDr9bq3nqTBY0bv9Q41PLbqSVuBgmdBj6HFAIRjhb/2QyCcGuFAZAMoGkUzk8SHmZDFzvn5c26L0RwYmbiPlGgSBqoz6II+/WPkyOEHXV9r4YPXRaZliJUKrsN1U4C8AdNkkBzEQpvYb8J5VnA55yacPMFdfPuHM/c8G4XF535B/SYvqvEJrenzoNswUXIgzT8QTo1A4x6ogW0iXELCyJ0m72UJzCyUiJTF9o5LriDhQshwFkNA9UYSze+Gjx4xYJQ1SYmjxoxWB+92JFKmCYH1BPFTZkqpRczEFOmR60Q6QVZXlGgEbp51h5rFR53TCPQZFunwMqCeY/ldr30+gXDqgJR4vNaTc8dPOi6TK2PeMueOuPxKjy4xmbZnqls9iBE9J+GiFEO9EefKrmMUi7JdUVX7XNX5t9HwMaNspkwNneytH9IsfiNhDd0keY45cUzmcpcaCSoGdO/Gh/XqekAoOHGFvEDf9wmA3B+BcOoAU/2TBu8YU3AfX5a9zsla3t07e1x3oUvaQofP21F34LqtvgodpwEaDnnSh5vhTMqAL+9Q/+6LaYCGw2wa/olhY4e5y7/78SFLNvSbvbv2mmaDk5+BympNU4ysN5reuxcOZJIHwqkDUrIZPpx8mupG7kZi2bxvxF1kfmvbz8BUnI+Z0LtNfXuzqhHAN5NsHhZYBHDsSWOTT/UDAkQbgY4xxUw+z0bhZmnE+3bts4HIZgrpJbH3cfmkXpz/esHONjsbCKf2wCksYbW2Td5J4MNMuPqBT2aucy6dvyzeun6LqCVxDPPSPaTajB+b/L5agN/xsxdsoy2w5clssEveXP6d+dH4k4+3a+VE/txoaZQAqQ7+b/QYJSygd3TWfvYxkqP9laIekU32yoY0CphRPTv0BNXWPEfA7GtfP0n3JnFaMbN5wYdTc1hH9XOAeieehOyFqGqfRCOxdP498eaN22Uy+ajnRjx+ppIrUcEIAFKjqXIVUgBqs+TN/OWXRCf80UnW2e1Z2HNQR08IZCBYPWB9Ny7gj9C2rhUhYikaIzKOqa0WrvnMECYbb0ZBIMRN9daUZpWIw0QgnEEiZXibEoTxNaIvyOAyvJ2LVkuz2S6B5NKk0UQdutZXO/3qAWoF83uo2vw2/qHTzz/dH6wR5n39byLiYaykqZmEnjRS7eVQ4DuWqqHLNEsgCewzn1ZybOHaoZuMiWazd9du8beeoJ4fy/TkROo2YDF6HCYC4QwShPwjThbcJ2RxJCQa9LFVT7tS3pcHJeYlLmv0bsAsT8VGw+RDvuzOnDGlLmskEQ8z9byppkmZA1NanGk8A0LtwCoNagviSZjatYhn9mvfkfqY2gGstsDEAq1RLLFMsdpJhAMZ24yUDSaHh0A4NQAPBLKfdvH0ZE92cP/iFfHjq5+zOBsTJPUUpi1tVE9WFKgnosSOJyZj8swpbs6C+q0kQFDlGbPfYgXRXbm6KGQTGpMe7yjnWToJFa8p552afGvogWDQ7p34aLwZRfnbdM140x6l4VC0/XARCGewwKQyYZrszpn/rsyNhk93btCoVLEwc4slYQgXbBnbI1CJDx90sZw7/tRj3fsXzKx7+6A9ve2vp+onRST4cwZALsa0hHQkRBrBTZik60yedao7f2G2K+vVA2uX/jS28qB6bBYeodYouoKZmynZRGVmNo+s7wTCGSSYhWF1w/MzmLy3aNoXfSgEfhuRC6tJYtbkRTYEsDWCb/iNCSePcx/fb9WCeuJ9V743WvDgZ2VRDazl+BwgFqeTVqR2wgw7c042n2e98f2F98cPff3/qkerr0Q91ham8aldyupImJjsg3iONLE3EM4gccrZp2VyJIRsNC6pu5hTQh2Fh43pV3Td2udTA+r/+Mkfa1YKQFX+NLVNquGkPp9y2ZuBQwlfnff1eP1Dz4tMStZr8iUc72g13nyinUh9YR/Ek4ZVHC4C4VQBGh2kvdfWkxLrHz9pnPvA4guaIkyHwk3TP2+6i0RIwvRq0FEgHutIyX0NDjYG2qtsvcl3KT53jOloev4Y0+8jRg23+05XA03NAZzn6RrfKTj+1APPSQCX7990bQsC+v6wfrutBGGlQES8lbwnYCPhRBU2TXCQrRIIZwBgk+BstabiQUjVZMWC8acc7z62NHv5UbfO/JKusmiRzqi+9UY6O4cQF8oItCexjtEdmYnKJSl05JiRujZpM2oSqwul602LiTFlj4kZ2ct/fnn9H9yXP7S0rUnn3s/9n3jJubfE3a+UXUmmtucVX/7DNBlt1RqBcAaATSOrmUyJlAAX4uHu6HFjs5mMef6X4n27sL2lbZj6W/sOsz8YEYm1ITsYUaXDdowalrnAR/NfCXaZiU+L0ZtnSnuR0hEnPgo/rV5xr7y0w+JQ7A/bDNzX82tkQjEmFfSPNqj1w/2TsAr51OPGA+EMAKTGShToHdopji66T973scyRzeelFu/eucfFUoUBNWPSNafrCYQVoOGkBHfdqmytr3XbrLvi0k6v7RmhcK16moQG8EzNbBCsgp/uIa//8Ouw3bVrn1t07s3xfQvubwviuW/hv8RUdty3c6/xLnlPPDucwLz7mSkICA05+aMaIhDOADAhIhVAD2HY6OGWNJgcygzumftPcXlnjytWZEoxMumafeepv4bDTJDvrD6PjIX6k0OZAOkce/bsszZBc/Ekk/oifPc3wZI5aGEDtB1H4qKlNxgqsVv/0+fczXPubFnSeWjZIzGBfM/+dKPu3fuyIFruES2VsAkLR1K/wVfjjyd/XEMEwhkAjIT5cuxGjBmdSbJZuXh1/NLzL3rHJ0JFhzHzgKP1Jxw6rSVLRrnMReVCNi89v9kvlavrtMC+lJD1go95J2aH9ovLfdoORIoT1Xx4ssPw43Xt6HJLpt0W33vjv7QU8Xz5oq/F/778Ide1p8eW/MEHafOXUZdMSt8W9kLTEdEa8Wq7HgiEMwAoDVqW2nnNyuxlfoM5C2ZGlLo0jYYOI+Go2HSRBAmduc6gW+I4PufSd/kdGQGzTFs3vOyKPR0audU2Xm/xRAO5QMz20ujOon6QdGKO5kUufv2tJCdLpGPiZ0Reds+v+aVpOwTJ2R9kFH//oa/Fi8+5JX7lxR2WcGl+GtQW3kuiFUIjBPNhsVvdBZOKYqr4uupBOmGp3wFAR71xTfaSMffHfQt+EK//6XpdsPRiCUY91OEDI+emzCQWKTuBcvcvWhU/vepZPTtpLvoM7yJwxJH0LXeDD8dPA9vEAG6LvPfzMMtXjiV0GumBkVNKUunf6py8M/X/zr96q5s+/08zc/9fuujv412/22vbRiJqh957gXBlRpXyMoWTTPnUl+VvCrUPrVUdiPbQdq0Q1hZPwAwUD4bcIhTvnB5QV6J2Zs0ncSggaE+uekajGE7uxOknSWLBOhzfjOxmcslYRysploo2HXoopCaGORJt5QmvPaWENvm8M9z7P1f/lIVqQe7YU6ues21v6tW/e6fEM3HaHzVtRQ5M62fWPud6dnnTqBH3fbgIhCNY74DlGQU0CLDmNwJJ7vA7/upP3HuvPjczwlQNyAxfh8ARH6PR20BOkYiFFQ8wuZjGNt+Ev/tDope0RFa5ksyPJCCM/QjYB2/6y8y0zwoj3Od0bZ5EzUyqu1npzTQIHec55tn4Uye4y+7+aN3b5cd3/CTeuPaXbvsWyo7kTYuz6X/dN8/cBgu2M4JAOPsBIWJg4P2s9012sz/XmusNPXz3T+OHvvFf0nKwx6Xr6KZQqSHVvEwK9kZ5kRHsOgB6tQQRmHXgxK8x7uTjM1dIfPH0W3Fk2cDBKN+Ijk1bpFogv5k6XK0vqd1GnzTKTX7XGe7Prpk26LZas2xNvHXjH9wvH/2lI5PbyASyg1ST4m8G03D8zzWiDapFIJx+QLAYIZj+nmw+idbPFGbdINNyJITMukQ5kUWZIkoyrXI9ulc0IO8oPRgQHCKImdlAuNAGWYXiY0svzVT7MHvUk+u2zGZzAuOyqLt2g5yrLeFtCXylUrIZrRT8ujdh2cIvoi9K0zzpzSe54uiCO3rCWHfMCcfaoAB54C88d+450U9uezB+6ZcvuVw55za9sNl17+6xdd2jvDRx/UZKJund9fEMg4vfyz4jvQxJdyAcgQdUKifqMBmyGqEmnT3RfWDxX6TPs6XB8+3teBJAAr1sRDaTq084DgUawgtOwY09YbS7/HuXZaptSFRFCLkonp/5m9jW/RlJ1hG0rQETJjVf+F21V3+tg89WFZLv6VpTnxjH7TMkiW8N0kCR1DuDn/nfknvwmpRoSYMHv0GJTytYzjH28xt4Hu18/rx8PyuAcKrrcW2Msp6MjUqoxnpYjEQbH/qFFRv332htkLzol1QRegXAayq9wnII0JHTTjxsdDFzZEMwmwmWyJTlSkjpSImmmvsbLHxNZLUTXQegVWlfDm0SjcY0G31BbW/XRGSv3jkO+fQeB5itaJKQjV5516Gd3mTjd/Cl2T2Vi/3IRvv5TX3m+4wukI2UIT03EVPGMOQJJ1W9LdKSB6veg2q+ZcN2t3TeN5Ke0NogYJEo6VLUpU6YwNIeBh79YglKudLjho8hPypbgY+s/ti1qzsRaGkGuifzoSDY2lcZYAauFki1j5jYJ/UfMbOupWKmDxTgCbvvBclYHFA/0wjYNn9vH/Q92j1xfrtY5i9OfzSoRENKNZtcTFyRv3/IlnevSKEh8YyzhSFPOHQUi63QQyMeoaQHOKziVdvNz2+1aNXkqy0NyGLMyDFGrDZK4tNhZBwIpbwbfvQId83KbOVHQTbde0SgEtJUcBHQlAAIaiuUGyVwaDTqSxCfXlwN1+SFHhKSWUR8FAMahMh39AeYTJC+/Z2JIieRZkR4hnZFkAv3Z7433RMEZvcqkvEc4301egGIjH2QUlYx5AkHokkfjw0U6i5WJFoPj8+b128ztT35SkuDMg3jTjlendKr6Y4cKCJQ0Qh0z+Yz0P6SNYTuX38TiYSvXZEtsvnKhV+1pWZNk0kIBvDsUrA/9eXUH540jAz06u1PCTnwSuNi7Jp5N2Lydlj/76XftW9zLr6fnBsCS2Hn8Ju9eO2+vrbJCoY84QwEHnTX7n2WcZzsamlQw+e4SRO8oEY9aP/qpeoG+Ajo1NpRVMdmROWGb6jR+lG1wvL534x/v+kPtp0r4+MIaCUEwhkA5NUQ57B3zx53q9T4ZHdLA9KZMGm8BBaCkWmlfVFe/0qVZyCOKwVzOtZqsbpaYdn8b8eb1m92+WiYfW6cBhNQKwTCGQBk02IYI4h793RZbZTkUEtj3tKPRlNmT9atiVBxSJZ9Pg2aT1TocWf+1ZnJN7OBf7rie55s8nlXqfSIIbv1XDLFhwFVIBBONbBZrLzNguBnZRmN5EhLY/bCmdGUGZPt/tAXLP0hjtzU905xM6/675mR5hU3PRD/+vEX1VvLFjNl8S5MDWMKBrQUwhMbCBJGSwNIHHD5kshHWsCS93wxfnBZtssTVAMWj4N08FVhOp41Y4qb/bnsZH7/cElnvG71EzYDZQv52dSMuq1F9PpnEtA6CIQzEFDbY79Gj6Xxq6PT8ak588jX/8OtWLSy5UmH0hL4a9541uuMgJLdTccDd/4kfnLFs64gUw+T1mZpkoTUyLEiZMs3/ZBDIJwBYLM55byNrDZl7Lpt9samLiUAT6x+1rKU/bdbG39zx0WZIRvw83ufUA+Npd34bupLmXpHcVzJiYgC4bQaWp5wiN+0TGiciIa+W7IAN3sXaZifIue3D+O2bRBVp/ddG8dqGsPuQf7LE53PuPs+98+h99cQ5IDJeE0++XdmpXzMisB8PqZVQEuh5Z8Ys7kkj7BGtE9+88FrRkRGAbpF88P4DuuXwkhIqAaw3ytU3PoHf+mWzf9mIJ0agMxv3kNjth9annCIji3nPcn4qd2C97WIcI6feKxbsOYaKeSo4kRrqgtDNHrVbgkVH6fDuTetb59UiGaB9ZIq+S4bEFINNaB90Po6qYiGzFmDNA1PQT1uwsRj3GXL5lqXvWHt1ZHvvLpd1HCpPj5orDa3D5kZoeXKbtOG37uvfPDuQDpHgFtmf8WSMXlGlohJ/lFAW6H1CUe3kGdKlxFRHELk7NhRY928Za8uEMUSJiNHstxrxZcRtb48eLMKPwN1YphJMUHR+x8272yb/KtGAc2me2eXttSeSVVBioQFtBdannDQVLrzGhVl1jBlTe2XqzoPvKTL1as+YWUamO0wJ7I5kgcHSgaw3IjNpCAkuh4qB+zbtTeQTpWgDEj3Lhark3ksc9j717yWE9BeaHnCsXq95aKF5w8fOfCa1pRpyI3VbUM2ZoINDn5NI1QrcYtG5oJOa+kQJH3uKrX0ao2NAGTD+lFohxANC7WZP07qqieegHZC65tU6pzenImt/EKy95C4fsWV0YRTjjcTbLCg7gr1SywfSQLCNheB0IiFXM+OkltEbeGA1wAH+6aNm8wMpu1oM6a9zbePmaxnGtBeyDzhmPDqZQXVYmaDfEc0J60JNcpKyS1c85mqyCbFvGUXG+nQBK/+Q87pz1vNCY1kUmFByeFzcgxQJzlXKbr//Z5QrL4/WLhvy8atammv0fQhNak86QS0F/o/6UyCimk9su2xfqCGMqNfzpdpTEsw3rDmyBarm7/00mj8pGPMuvKVxr0PBuIAVq1tsLDYoIpjFdkl594W/+i2fx3yxEN+lK0SmqQpBAwdZJ9wpMkU4rzzpTGlSVAY2sowRjJn8oOu2QLpnDnzLeaHwRzCICqx2JuIopxLo5ePHBYtSwSirhcy+9k/P9o2qRBHghWLVsRPrn7W5UuBbIYiMk84RgQiGm/4eBs/h4M2l3Onn3+K/9IgMWfB7Gjqead7FR7TSORAketCLSrKcT69sTibmVwi0HUPPO1+uHj1kCOdtcseiZ/oXK/2pcA5ZpM3nQKGDjJPOCawtiSG992U8JBIeKfOmuQu+GztFqubc+OcaOqsUy1KWbqNSEL/JibbYGC+J71bQW18E5iDlZxbt2qdFZXy3xoaWLv8YVttAE2P8MyAoYfsazj8Q4mIikhAGkghLrrJ550qraT2K2Oi6RAgaGv7kB6ROnMGgTy1gg3ElRRdnqjovBe2X6z7jfva/PZYimYg3DT98xoziH+KjcxT53/A0ELmCYdiVzGrRCaXOmHicaaN2Ic6YcHaT4tx+mbBBofUbPCRs2VGeGJNImZnnNu2YatbPu/bbS15LDmcY5E2c8jjJYN3POkEDC1knnB8djd+kIpjRonp7ORQXbEQ0qkFcHQbcekeuA9RS2T7vD8HbN6wpW2jki3wEZNY5in3Wy6URDtlV5Tm5/PbAoYSmk84+DUSFRvbPgXrJdEfzWGsY+MnjrMZJX+0MWCJlI5Rw/xInES+IiQ2W1at9qPvme+mV9PpA+flPKVCl+veWXK3zvlyW5HOzXPuirtIWcjLFE6WoSHtA+2uZFprwFBD0wmHWBdykSpxyaJ2UbnJp9H/5myFYYaNHNEwzWZ/XLfqU9GIESN0IUVHadF8GaEpmo+nFoDA8hQEz8Vuz85dbZUKccyEMebwjyrSaYyotVNtWCzl1fMwrWrThgGtg+ZrOAlwJJoGQZCcK6pfllyuLMt/TNGSLpOvNQVXrf5E1DGGgpY5W6+aNZxtcXnTXAYJiBUntbQ7ooC6d3ZbtbvkaEuDQeJ1bz/JFZISodwsz7hE/SJS9qvVEgPaBk1/4pgUCBtajX2mbERJHbMiNfzogrt25ZVNJZsU1628Ihp/8rESEl86wV41qNcSR7FMDPFLKnzS9gr6jUXTvtgWpHPx7RdFb5lxhra8GWqzdII95+yMdwENQgaeuMwnVkJA50aDSLKvSclEyP13soH5yy+xVIi0rnEtZlmsGLtpSjkzIYnT6dF/ebXJTdPbg3TOZymamafZNhois1VWJbEt7i7gcNB8DUdCi0mBEDOLAflwWVTp89/IFnBcT5g4TiTBpxqYVCIb74BGa9JHtQNOcgIFSd0gfqVzUWfLi+b5C+dEb//rs0xDjDCZda9xDVJHAloLzddwJFjA1rgm3F0jX9YW0N8f+CYmzzxVWzVovn5+DPxCoh0jXmBtouOPr37G3b+49de/Ou+q/x5RY9qIWvear9QgdSSgpdB0wqlEMqfwYyB4ZefOnvcnyZFs44IF58tMqEUul4/PAUYwmJbewSH40ACOP9253q28qT2SPkm4jXSvpRrN9AW0DppOOI7sKJIlJVlnzH6Lmzb37ExrN/2BmXDGzNONEFKtxJai5V0viyVKyAR4nw/f9bfofTfeAQ3su/b36WcUIJlXEky+s271U27ZZV9vD9J58PqIcrBp+1h7JW3Yv40C2gsZIBycpWVHiYgL6pAfVW9csHBWdMPaayIEB99LXPJNKg71hJGQCcAhDvLJNHF/MjoYWLmA82BqRa7gNm3Y0jZL0VDutTi2ANPo7tQWIls6gN2rlW0NpNNuyADhVNxpZ59iiZPJjpbEgoeujUpxRVqMCFR3Yk5w51cd6NV+TMOpuHKZnKLqRvEK9X8EHMhMofM3W577fdvkXzETOXLscN9mahNKgzBxYO1DWHJAW6HphEPH2rb198mn1saNaz4dDR9dFEvEfnqf2RiRDQLEey/x5NF8IKCBBYo0ACvnIE0JAsOxjCC+tGGzu3nOHW0hkVet/FR0zPix3KWrUNoxCQqsonkCWgxNJxyEcNuGl93dc9vDN0Eh9+FjRiSlLdB4fBkG3tNtYEsEm8YzECqWSsHf5XgnjoVt0VnPjnLbpEJ84t750Uknn2D35k2qPoIOaB80nXCokcIIvvX537ull7bH2tz4JjpGd/RGT4P9zadU66kG+Lgw0Sx/SyYH5pWtdCBNp/uV9kn6nLv8I9GEk080H5ctVlgVIQe0Epqv4UiYCtRKkfC9vPHlthmxWR/ruHHHmikEoabm0/7mVTXgm5zHnMzMYqXbVmq1YkmfS6bdWv0JM4z5yz4Svf7Mk4L/pk2RAcJBbko2K0FS376dXbbsqz/a2sBMeN0bX/eqkdp8O72fB25+iAU/jhFURNKoTyK1v4V4+E5yvnYhnY/ccVE0dQapEE3vngE1RgaeqEZ87HW9m0NUxMOC9jfPag+H6CXf/B8RVQrzEIc+Qw591lWfyZXCCAbtJYGfVk9ISvvTz/bieyIj1uI2E0uktOjc9sg0J8Zp8nlv0T3RXr6d0BSBaYi9bRjQSmg64VCYgalQLA4uBsGsRF2uvKvcNmUa5i+dF5301hO9aSRhgVi9vKTvHiZIRBtjNlUpVBWm3qX5QFKYIUQqL1G7rVzc+vlX7//czGj63HerKaido76h/wDb3qSsooECMoWmEw6jtK+Fw5rc6lTloj519Ia9t8uIjZkwec7pFhyIKZSCqWDunZfVOXZFV9bhiCRWfDQDgNgV03SIX9FfM4tFsXbyr9ph/atz5r07unHNtRqTuE9PPGookZBaTvca0FpoOuGgLpvKLOHivZxEmDKCmbNVItMutWHe/9lZ0eSZp+lWY5GrDwosVgquQI2Y5P5jsQ0OZvxaaRmMQ4GGMTPMhFDn0KuU77F9T3S2B+mAhQ+S9Em7EI3sTUz8WQGthaYTjpkC6komXKjIvbMwToJYtG2pBabprFjU+hnT+Cbe+YG3myaDKQQ5lHEG6/5tIisdta1d+jShQ8GTNlsQjycvhBIT68nVT7fNUjSkkIwaO5xhyPpN6tMJaB00X8PRiAXoPFgR0pQNaADlAv4dVm2QbOob61Y90xYrVr7vqj+z9a/MnKSCICQrojHyTaoIpjNP1cBrNzScJ2pW+UQTMBNLe7eu3ybSaY/8K6KSR44ZDp0mJBvQSmg64ZhGoxHZAgBlRph2g7psKrOvD2N+DyEfFUU6T7uVbbJMrl8X3UcS47exOs5iDO6W+KRqHg/aDTmhRlC0HaRVkrYECSXnwETbvn5722g614h0ho0tGqEGtBaaTzhcgkymclyx0H0cyAgfo7/4xoSFpEjG6wqrb7qSSOepthEeSCc/Ome+nDImlGk53HuVwiSNqDeYkDbC2Z443FlsLl3ehnNvf+737gvnt0e4AUmfJ5w8IfkU0CrIAOF4MwBiSX0WaVRuJKLhEhnJ2MVxCAls3bjZff2j/9gWwvPpziuj4lEFEa7MR2kmkQgjZ4vHQUDSeERCtIOZnxCL9mOCWmwP7ZbkZVk79msR/YV24BuiDfPeX/RKsjhdG4BUCNYrMyRt0tulK9Lwkv4UkB1kgHAGgu80CBsjeQo+/+7Xv3NL532rLYQHM2HE6BG2BI3dEIXkUfH0jiAZ2UIqRix+NdKeZKbrkIj8MsllR/1gnS/qcl07etztM7/SFu02f9nF0fg3n6AOUZDJ3WGEa8QjDdFCBgIyhZZ4IqmgpQWsiD71szo5t/n5ze62We2RCnHNyk9GJ56SmAnpCE0BLmkp3K9pOGoHm4VCc2F7IJjQJX4xEZhpUVISd+/e3TbhBvPv+Zto4p++WUTdY2Tjs+uJcArIGjJPOP2JJkVqchnUsfbu3uc+3ya1YeYu/Wg07uTjXTEixgSNxJuQkI21hQSKXWwRoT0wREz6N3Yy2fTena/4WJ+8r1C4+NwvtEW7fXDJX0RTZky2NvLaoG+3gGwh84TjBc13HutM+pwKH+84mrmN0q4ed2ub5F9dtvyS6Ng3H6ctkYOEx/siPOmi1UHA3Gg1NxthjqmdKjoHjuOOZAbLxT36ez1+nY8UkrXLH275tjt/4axo8mzyr/ythGnz7KEFCMc7Qy3MREBYeKVZ13Qq1GfMha7dPe2Tf3XPR6NJ57zZzKeizTaltyXNJMfqn357INhfqZ2KPSIqfbJIbiMaH9/EPkhs7bJH3Iq/a/2o5PffMDtauPbTujUfbR2QLWT+iaSzV/k8Wk4yU2P7/fBlAW9km0M87NeL5EU72OL4wKK/jM6cPdl1R/tcQSaW13S4Z5gC/cS3waHBIxbZFIhmhqDTR6621PlMKJMp+CdWPu06F7VHjNPCNZ+JYnOYB2QJmSecVMiI0wH9Z6r8CKYR32rEaETTJ1yFuDZYsfKhZY+0vPDMWTAzOmvmWa6HoMj0cYlkqR/kA/sODXOeJsRiL0dwIX+XmGgQOufLowGVLenz3hv/pT1I58Hrq2HkgAYi84STqsXeUSwDoNe08GSUakCWca59iBRfZVZn7T0/de2QfwXpnHPpn1pbWDkKaXRRpcOINQWbaHnm3YGk9cqV1RqYoNpFIxh5cw5vjyVQ+/JdfcFmd6QVPL/ml+7uy9qj3CuBlSNG+5rQICfNENAE/VshoDHIPOEMFozYP1iyouWFZ/r8P7VlckkBgTSYKIdcU1juVCXnOnCiEzSoz5hRA6GPhNIm8gS09dmtbUM6V3deaYXtubdSoiFbYa/27/6ZQ9u3eM4V3FOrnnH/vOAHbSE8Nzx4rVgm77qjHj9Kiywo1u4d6NJ/ct1mdpL0Wg1SUwuCMvKRBmAao1Sebc9tc3d+qD0CBCls7/1e+K5owba4rZZD2xNOHDGDVXAbH3qhbTKmF6y52qKS82VPMnlpNukKEZBHicXzcKT3ai0Hhy3WlxAM57K8LNlqmGuULd21eW9blHslncObl7oVI1W0P99mAY1D+2s46l8IEhUEX16/3S1tk/Wv/DK5RSMY2KFY8X4K004iP9VdjcmQzvZZPBNEQ2Ch9llUMs54qQPdu3vcLbNbN/9q2fxvxvt2eo2Q9mFWDh9YQOPR/hqOXiaUEiWEaesLL7dN/hVL0dja3GLVkutOiIKIYu/D4X0gYHqZ/6bsS4RAP73EpfPmzDOdc/t273O3z2699a+WX/qP8aaNW3QHuo9E6yuITEE1GmBAbdH2hMMtmqkA6eid6fWtG7a522a1h2+CMg0TTp6guyTi2iPVUqoxGfhuLM4iINCW61E7pURlx3JoBsTwFN3unXvcknNva5l2WzbvnnjzCy/ZPTFTR7AoJmNZpiL3ltZZCmgchgDhaKRWh2OgZjTP644rUbfbu3uP++LsL7UF6cxb/pHo+EnHcWPmd0HL6cl1VSVQ5GzhzjCSkQZgJKM/4+WjkRHWgogaZ7Q32xa95+8y324rb1oVb9mw3QYbbjBWW+R1H1bkjXvSZ1PeAhqKIUA4CA+kow1UavWytKZOzy4W3WuP2jAfW3pxdOypR/lYGpEGRFIm/UPH+OzNSi9oqSlBzE6JY+xDMBFEa5ukvewbvv3ycYc0BLSdiiv2jHCLzv1C/OM7/jWTbccSOeseeLb3nuxlRKp77Wdm+nsMaCSGBOEcCt07S21TpuF/Lp0fTZ5xqotyGsnLeT/zxAEJHJoPAoZJSVQxzmDWKK8Glj6CsJpWUPGrQuj8//X9n7n7F2crsNLIpvNpuNJM6IBsYcgTjgmiBKldyjTMuXFWNOW8t4hsZFqVmGWKfToI5laq6aDliX2ooTwwMLZ81AokRSKpaQ4is2JpmHu6c32makyvW/2UEW6cl1bGqh8BmcKQJ5xIJgjr5jP6k2n+QEbNhMPBnBtnWG2YsiVs5pPMel/7GKMJnwbk402NgZCYJfyliJk/g4CI++kp+IqDrKbx7Su+1/R2S5N2qZrItH5ZmlhAtjDkCQe7nhU/WdkRj8Xj9z7eFhnT1IYheRHnbwVGFSAe7pE1sfrPah0SmGU6h1XTi7qkEUZW5J5gQwugk5aEyfXbx190X53XvBinxdNvjTH30ODQwri8MO2dPQx5wvGOQ43e6qgFkQ5Fqh594DHXuaQ9Vqwk/4qC7Gg1NuOEloLSwtRUNdM0+o6ZZcxmJRqRBRbqnbQR9jEbxjpi2za87JbN/3bD2w3N1CKtK970qzArFffoukJwX9YQNBwJk5GORmtGSNBRGeF+tuoJ949X3tsWpLNw7bViBAlj3peqIN8KIjHyGQBGLDLFpByZZkRbsQ+TrEIxL5lqhBgS50TIweb1L7m7PvTVhrXbLbPvshl8KWKOkh0EKrKDwQONLiBbGPKEQ22Y1AnqR3xpORIn1PJfPfZbt7Rd8q8eujYaNnqY+TYKujebcarCaWw3T70cmIYaPGorCIbpZXZZHSLOpabzi/nFbueLu40I7AR1BPlRe/bss9/nvrgufp/6zVyLXXNAphA0HHXOV0MCZULltzdvJBWiPRbdu27llZYKAa0yZUxAH9CWKyc9IfV72HcS9N68EbJtJO+CNBsr4KUvpTlcaD/du7vcbTPqlwrxhfPvjHt2lFxel0JqBs/ME6Cug6n/KrS3gMZjyBNONdiyfpu786LGmQn1BKkQw0YOk2RCNjiRWXIndh0p45DY6LeEI+sepvHInNm3b59bdG7ty72y6mpp575ecgxoHQTCGQDmKJUQ7v1dY8yERuCa1Z+KJkw8zu6N1TtBWf9BNCwqY6aJXlZd8AgA4aSkg2+sljFOd8/9Zsyqq2hbcTL7FtA6CIQzINACmBKuuK5d7bNi5bxlF0fHnXKMq+S7vOOcYDmb8vbmEo7X4hGWcOg1y4x48PXkahLNjWaz9fktdj5/sn6mXUBLIBDOAGDUJ2bFz2CV3Z49e9zNc9pD0/nY0kujCX98gk9ojbttKR4rYRqVXC6uuFKhK/nmwIBkDmTi4FQ2J7PIZ8m0W+MVi44s3IC/27phk2lkEA5L5fT5lAJaBYFwqkAuSoVJzWWazh4JT+uUaTgU5i+/JDrjvCki1rxuj2RO1jZnFQx9TpzK1QBCORA4r81bCySRPrH6aSMPv6c6kDrxxANPGhlC+5zHIqWlkQW0FgLhDABmPyzr2kZWdjAljDLfPkmf5984I5o643RXFDNArhbLEpdcoQqLpb9Wc2DSQX0iXgf3NMmiOffkqmerTvr84ZKV8ROdz1hpEVabqOQqNvXNs7DnEdBSCIQzADAHyEdCmPw6UF6lRxuwtbmn3xxnLWP6SEDS56mzT9MNy3zUf2Sal3sXzTs4rF0OYEqlYMrc6vJIW7J4J84u0nh69XNuWRXhBk90PmUaUilPzFClt1qfPYOAlkN4agOAUdQLCh+8boOU9DkunXtq5XM2EicfWxYX3DA7okC7BUHq/nCWI+zccZ/uwv5X3+rBzCngiRr0qUvWpiKpzRu3HjLGidktrxX5QvGA1BNr+/SZBLQUAuHUAIVczj2x8pnD9k1kFQsfvC5CqCnm5TWKPoqBLDAq8+Qt1UDotxBYeYBobsxVkmoD2guBcGqAHgqYayDGN9GM5MV64Ia110S5sb57QDypZgPJYGKWkmTQWuDFjVteFeP0+Wk325Iu+Ur1TuuA1kCEDyLZDjgCePXej/yWm1SJ3IRJ4938ZRe3xfh885w74u6dBABKr9FNUmumQ//1RD01IRw7h0isovdhY1lPtOD27NxlJBfMpvbCG898Q9BwBgubNYk18lNhD+eyBIdUiOXz2kPTIf+qY0yHOX/1j01Nlyr+nmsRBwOp2DI1aj+IrWvnXhFb0berOekD2gmBcAaLSmwjP05WExAcrrnIvfT8i5bNnHyrpUH+1VEnjbVt4508c3cys7jXQQLKQqvxp/KOeJoTMiuYKRfQTgiEM0ikWk2slzcPmL6NtF1wPTu722KZXHD5dz8eHX/y8b3mY9UFvAYAsTVxoVsn9MmkvV0yV7bVUgPaC4FwBglMqRI1EqTd2MBsKyFIDUgKenXv6Wob0rls+SXRCRPHJ59Igxg84TDjRVygJ2k/3a09InD/OaC9EJ7oYCGhgG/SWBQEyG/42jBEyHbvLrubpn++LUiHRfde99aT7N7SGsKYkObHSm79cMginfWitrSRDdqT9vt2DBpOuyEQTp2BEFq0rYSKQt/J7pbGxbd/OJo6Y7KIwWsklNfL5zAr/e2ZucX+0L0C9kPoEXWHBM+SDBHIctskfbIUzRkzSYXQ7Ui7Y6YJrYQSNTiU7VNb3GlALREIp84wM8OWU+mWXLJ8SY+tn8QKkf4brYsLFs6K3nnh2xNTyHclooPxwUC0oUBWwP4IhFNnIIiYG5Ek0U/3ssoBUcnr3f1tkArx3iv+rHf9K0wq1sAyM0uvmErmAQH9EAin7kjKW1DEy5Vdzma0crbG99Orn3Y/XNL6mg6w9a9ErK4H5tF7XPBZ4gEB/RAIp94gViVHqYdkORVmcEQ9BAt6Teepqso0tAJuePDaaPhRw3VfflkZiyAOCOiHQDh1Rh5iEcnkXIeZV1FFQth/yljbW1ixsm2Work8Ko4d7hfOo3ZpQEA/hB5RZ+BE9TElyYJ70nLsPQFH8H9s2rDFLbuseWtz1xLXr7gyGj5mWO80eUBAikA4zQZFyzGxpOlsem6ru21WexRov7bzcgzI5FNAgEcgnCaDcp4gLvToacRu784ud8vs1k/6/PsLl0rBCRpOwKsRCKfp8IRDCkRUzuuJRK57V7e79fzWJR38Uds3/UHmInllAQF9CITTZLAIP6skgIpVY6A+TOT27SjVdMXKRoEaxVs2bn2VnyogIEUgnCaD2JyeQlJoquSX1mWdCI7g11nUQqTz7Su+F295YZtFAhTQ2JL9AQEpAuE0Gf1r99qql4L5dXLEsfisa/Kv1i5/ONPEs2LRivi3j79oM1NobdSyCVpOwP4IhNNsSCh9kiPlHpwJbJQru7isRyPSYcqcRfceXvaf7v7FKzJJOqxWse6B51zFSo8S9JekcRzGyp0BQwOBcJoNaTBeE/DEY3V1tI9IXfusF+tpU6D9yc5nXeeiH2WKdNYs/anI5mlXLFGHuOSX4yXqTwjT4gH7IxBOxoFJVSlSzpMZrNg9tmqdu2/BDzJDOg994xFvQuV7xJOiGPLG8pCoeDP5TkBAikA4GYdpP2W/1DDT5rxvePiFQ65Y2SjcdO7iGM2Ga+RVKBfs+myFhxrUOw5oPwTCyTx8JT0zsTC3EkHetHFTU1MhqF5YrAx33fl9rpyrSMth5QV/beY4DnNUAQdAIJyMw0paUPNXQmzajswqUKx0WCrE3U0gndtnf1mXU7Y8MXw2OW1wbeVc2V8vZSoEu96AgH4IhJNxyIiymSzTdHgX8VBBsJz35S62rt/W0FQIluTduXeHkSDkgvWUy/nZKEgxdRpzrfifAgL6I/SIFoIJMD6SfNnSBhBwyKhrV8ndNusrdScdlrvp3rXPdZSG2cqYlEy1qXuxji/Boc8y+czf1M/8CwhIEQgn42AplmQreeeRSaOQMJuAM4Uuqtmza29dV/r82vx74q49PVYc3a6EFUdjkY4dhQe9yWfrqwvmNw4L2QXsh0A4GQdazatZBFPFmyz+5fcSLNj9Ssktnn5zzUnn7su+Gb+8fru2+G1+i+BEfmb/a/PXa9Dx4DgO2B+BcFocEABaRYz5wtMUCS2ZVrv1ryCbrc9utfOm3cVKh0KEti8goHoEwml55HyiJL4dFqATEWDKLH7PbfEDd/5kUMRz78IfxNue22bajJELy92gVYlw0GSCUzjgcBF6TIsDDackDQfjxUgAhy0KSLniHr33cbfyCFMhVt60Mt740AumPaE8oUEx3Q3hmDkF8Tif3R4QUC0C4bQ4vFmTcz1R2QjHpqYhnjyEkHPrVj/hOhetPizSYb2sJ1c9YxqTBfRVPJExDW7O6tgK9/iZqICAw0AgnBZHatYUqd6F6RNHrsxidOIGIyO9Hl/9lPvHq75bNemwdE2lIDNN5JKaU2ZG6ZiV0Cj7JWCoUhgQcDgIhNPiYJbKHMdE+JrZk7fAOzN/iI/RI+Y7v3r0RXf33G8OSDo2y6VzuBJk5YP7AFPwkFslLllEMZUn0mMBAdUiEE6rQ2aPaR8yb8rSRKidw3Q0i9Hl4w4zh3IsL6zvbdu4zX11/tKDkg5k4x3CIpsc+ozexSwQFi8jGJvuFvmUpFUlBcMCAqpFIJxWR+IoToG2Y8CfE5Vtxop3fDE4gH+/fqe768K7X0M6S6Z/IY7ifJIHpXPqG94/5GNv7D0JNDTHsX5Tug4HAgKqRiCcNofNXIlIbKlhbbt8ye3Y9Mqr8q9Ii8DFDDGV9DLNRkj9QwEBtUJUj8jUgIwB3w5pTmYXydgqoPHEbtSoUVZ7uGvnXvWEyOJ5mO3KRzlfSCvMQgXUEG888w1BwxkKINkzJRt8MB1lvDx5t2dnt+vZIfKJCi5fzls8T8EV+8jGTKqAgNohEE6bA56x2SUnk0pkg3lVkvlUkoklNcfMqHJcog6GrK2Cvqej6TR4MKkCaozQo9ocVk+H97hDGoxz5agk7SXvCha85x8/n8vSairFuHd2Cw3HcqYCAmqIQDhtDiJxTFNhpqpMFLJUGZzCBPWJVKCjVJMhHQLzqoQ2pH3BhxNQawTCaXOk09viF9NkrHAW+0UmPjDQf4e4mxxajTQdnMZlm60KCKgtAuEMEfTG0kBA2vIxNh4WV5PsT7Ua3MoBAbVGIJyAgICGIRBOQEBAwxAIJyAgoGEIhBMQENAwBMIJCAhoGALhBAQENAyBcAICAhqGQDgBAQENQyCcgICAhiEQTkBAQMMQCCcgIKBhCIQTEBDQMATCCQgIaBgC4QQEBDQMgXACAgIahkA4AQEBDUMgnICAgIYhEE5AQEDDEAgnICCgYQiEExAQ0DAEwgkICGgYAuEEBAQ0DIFwAgICGoZAOAEBAXXD/qubBcIJCAioG2z9xQQsshgIJyAgoO5A04nj2EXfvuJ7/UkoICAgoKbw69jHbvyp493/B4i7Bqj983zIAAAAAElFTkSuQmCC;" vertex="1" parent="1">
          <mxGeometry x="734" y="209.22" width="92.53" height="92.53" as="geometry" />
        </mxCell>
        <mxCell id="siOGssPFufM20Y7SlqJk-21" value="" style="sketch=0;outlineConnect=0;fontColor=#232F3E;gradientColor=none;fillColor=#3F8624;strokeColor=none;dashed=0;verticalLabelPosition=bottom;verticalAlign=top;align=center;html=1;fontSize=12;fontStyle=0;aspect=fixed;pointerEvents=1;shape=mxgraph.aws4.connector;" vertex="1" parent="1">
          <mxGeometry x="503.5" y="226.11" width="158" height="58.74" as="geometry" />
        </mxCell>
        <mxCell id="siOGssPFufM20Y7SlqJk-25" value="Overtime Rules" style="swimlane;fontSize=22;startSize=30;" vertex="1" parent="1">
          <mxGeometry x="459" y="310" width="247" height="130" as="geometry" />
        </mxCell>
        <mxCell id="siOGssPFufM20Y7SlqJk-26" value="&lt;ul style=&quot;font-size: 18px&quot;&gt;&lt;li&gt;Worked more than 9 hours&lt;/li&gt;&lt;li style=&quot;text-align: left&quot;&gt;Weekends&lt;/li&gt;&lt;li style=&quot;text-align: left&quot;&gt;Public holidays&amp;nbsp;&lt;/li&gt;&lt;li style=&quot;text-align: left&quot;&gt;Etc.&lt;/li&gt;&lt;/ul&gt;" style="text;html=1;align=center;verticalAlign=middle;resizable=0;points=[];autosize=1;strokeColor=none;fillColor=none;" vertex="1" parent="siOGssPFufM20Y7SlqJk-25">
          <mxGeometry x="-23" y="30" width="270" height="100" as="geometry" />
        </mxCell>
      </root>
    </mxGraphModel>
  </diagram>
</mxfile>
